<?xml version="1.0" standalone="no"?>
<!DOCTYPE svg PUBLIC "-//W3C//DTD SVG 20010904//EN"
 "http://www.w3.org/TR/2001/REC-SVG-20010904/DTD/svg10.dtd">
<svg version="1.0" xmlns="http://www.w3.org/2000/svg"
 width="700.000000pt" height="700.000000pt" viewBox="0 0 700.000000 700.000000"
 preserveAspectRatio="xMidYMid meet">
<metadata>
Created by potrace 1.14, written by Peter Selinger 2001-2017
</metadata>
<g transform="translate(0.000000,700.000000) scale(0.100000,-0.100000)"
fill="#000000" stroke="none">
<path d="M3877 6343 c-1 0 -303 -4 -672 -8 -780 -8 -754 -7 -772 -30 -7 -10
-41 -48 -75 -84 -35 -37 -76 -82 -93 -100 l-30 -33 255 7 c140 3 320 8 400 10
199 6 497 15 665 20 77 2 244 7 370 10 310 8 498 15 503 20 7 7 -195 185 -212
186 -20 2 -338 4 -339 2z"/>
<path d="M4237 6116 c-2 -5 5 -46 14 -90 9 -45 33 -166 53 -271 20 -104 39
-201 41 -215 3 -14 12 -61 19 -105 13 -74 17 -112 32 -325 3 -41 7 -102 9
-135 2 -33 7 -109 10 -170 4 -60 8 -132 10 -160 2 -27 6 -102 10 -165 4 -63 9
-128 10 -145 2 -16 3 -40 4 -52 1 -21 2 -21 63 -7 65 15 97 22 112 23 7 1 2
227 -9 346 -2 28 -7 120 -11 205 -3 85 -7 184 -9 220 -2 36 -6 121 -10 190 -9
188 -13 218 -55 430 -21 107 -48 250 -61 318 l-24 123 -102 -3 c-57 -2 -104
-7 -106 -12z"/>
<path d="M2229 6048 c-1 -13 -2 -36 -4 -53 -2 -16 -6 -111 -10 -210 -4 -99 -9
-200 -11 -225 -4 -51 -15 -728 -17 -1138 l-2 -273 45 6 c25 3 65 8 90 11 94
11 92 9 86 62 -3 26 -8 66 -11 90 -3 23 -7 60 -10 82 -3 22 -8 59 -10 82 -3
24 -8 54 -10 68 -2 14 -13 93 -25 175 -30 216 -30 215 -40 275 -5 30 -11 73
-14 95 -3 22 -8 56 -11 75 -4 22 12 119 44 270 27 129 52 246 55 260 2 14 18
88 34 165 16 77 32 155 36 173 l6 32 -110 0 c-107 0 -110 -1 -111 -22z"/>
<path d="M2620 6013 c-27 -26 -50 -51 -50 -54 0 -7 45 -15 135 -24 54 -6 92
-10 230 -25 50 -5 117 -12 150 -15 33 -3 74 -8 90 -10 17 -2 80 -9 140 -15 61
-6 126 -12 145 -15 45 -5 131 -14 195 -20 28 -3 70 -7 95 -10 44 -5 67 -7 195
-20 33 -4 62 -7 65 -8 16 -3 149 26 145 32 -2 5 -39 31 -82 59 -82 53 -82 53
-253 68 -41 3 -82 7 -90 9 -8 2 -55 6 -104 10 -49 4 -96 8 -105 10 -9 1 -57 6
-108 9 -50 4 -102 9 -115 11 -13 2 -59 7 -103 10 -44 3 -96 8 -115 10 -19 2
-64 7 -100 10 -36 3 -78 7 -95 9 -16 2 -72 7 -122 11 l-93 7 -50 -49z"/>
<path d="M2554 5671 c14 -580 17 -677 21 -688 2 -7 18 -19 35 -28 29 -15 33
-15 65 5 33 20 34 24 30 68 -2 26 -6 126 -10 222 -16 470 -25 654 -33 662 -4
4 -31 9 -61 11 l-53 5 6 -257z"/>
<path d="M4085 5796 c-62 -14 -62 7 0 -296 2 -14 21 -106 41 -205 19 -99 41
-185 47 -191 15 -14 125 -59 131 -53 2 2 -3 38 -11 79 -8 41 -16 84 -18 95 -2
11 -6 29 -8 40 -3 11 -8 40 -13 65 -4 25 -8 47 -9 50 -1 3 -5 25 -9 50 -5 25
-10 54 -13 65 -3 19 -17 87 -28 145 -31 162 -32 167 -48 167 -6 -1 -34 -5 -62
-11z"/>
<path d="M4066 5107 c-11 -7 -75 -47 -142 -89 -68 -43 -128 -78 -134 -78 -6 0
-86 39 -178 87 l-167 87 -105 -71 c-133 -89 -148 -97 -163 -85 -7 5 -43 26
-82 47 -38 21 -93 51 -121 66 l-51 29 -104 -68 c-141 -92 -175 -112 -187 -112
-6 0 -61 34 -123 75 l-112 75 -35 -26 c-34 -26 -34 -27 -28 -84 4 -32 8 -66
10 -77 3 -16 14 -91 22 -153 2 -14 6 -47 9 -75 9 -75 11 -84 17 -91 4 -3 52
28 108 70 91 69 130 89 130 69 0 -10 145 -163 154 -163 3 0 16 9 28 19 129
110 219 181 229 181 6 0 77 -42 158 -93 80 -51 154 -96 164 -100 14 -5 37 7
85 45 37 29 69 55 72 58 3 3 29 24 57 48 l53 43 95 -81 c62 -52 100 -78 108
-73 22 14 131 97 152 116 11 10 31 25 45 32 24 12 30 8 153 -97 l128 -110 43
36 44 36 -3 97 c-2 54 -5 142 -6 195 -3 93 -4 97 -28 109 -78 36 -265 119
-270 118 -3 0 -15 -6 -25 -12z"/>
<path d="M4666 5072 c-41 -18 -55 -30 -52 -41 4 -12 17 -218 19 -289 0 -18 45
-51 169 -127 l101 -63 51 30 c181 106 261 177 277 245 16 66 34 91 78 109 35
14 40 20 56 80 10 36 16 66 14 68 -2 2 -58 -12 -124 -32 -200 -57 -206 -58
-272 -37 -32 10 -104 33 -160 50 l-101 33 -56 -26z"/>
<path d="M1998 5022 c-41 -72 -60 -88 -125 -101 l-60 -13 -41 -84 c-37 -75
-45 -84 -69 -84 -58 0 -58 -13 -2 -81 29 -35 65 -77 80 -93 l27 -30 84 49 c46
27 102 59 126 73 l42 24 46 -26 c26 -14 49 -26 53 -26 3 0 7 58 9 130 l3 130
-66 85 c-37 46 -70 87 -74 89 -4 3 -19 -16 -33 -42z"/>
<path d="M5390 5008 c-23 -90 -24 -92 -73 -107 -44 -14 -47 -16 -57 -63 -5
-27 -10 -55 -10 -61 0 -7 -23 -35 -50 -62 l-51 -50 5 -145 c3 -80 8 -244 12
-365 3 -121 7 -258 9 -305 19 -447 22 -1199 11 -2175 -11 -874 -12 -995 -8
-995 2 0 14 24 27 54 15 35 38 65 67 87 54 43 70 62 104 124 28 49 28 49 30
285 6 444 3 3820 -2 3820 -2 0 -8 -19 -14 -42z"/>
<path d="M3991 4672 c-25 -20 -70 -60 -100 -89 -31 -29 -61 -53 -67 -53 -7 0
-51 37 -99 83 -48 45 -91 83 -95 85 -6 2 -95 -68 -175 -140 -17 -15 -40 -36
-53 -47 l-23 -20 -47 28 c-233 139 -290 171 -303 171 -8 0 -30 -15 -49 -33
-19 -17 -70 -63 -113 -102 l-79 -69 -88 92 -88 93 -111 -82 c-61 -44 -109 -84
-106 -88 2 -4 7 -36 10 -72 4 -35 8 -74 10 -86 2 -12 7 -59 11 -103 5 -65 4
-80 -7 -80 -8 0 -67 -9 -131 -19 l-117 -18 -1 116 c0 64 -3 165 -6 225 -6 118
-5 116 -71 151 -38 21 -29 24 -186 -67 -54 -32 -102 -58 -105 -57 -4 0 -49 48
-99 105 -51 58 -94 99 -94 92 -15 -166 -25 -1013 -15 -1213 43 -825 48 -1246
21 -1940 -5 -115 -7 -199 -21 -633 l-6 -192 94 5 c483 25 1180 25 1678 0 70
-3 384 -15 540 -20 188 -6 477 -16 575 -20 55 -2 204 -7 330 -10 127 -4 256
-8 288 -9 l57 -3 0 86 c1 47 3 316 7 596 11 1039 7 1813 -12 2390 -4 137 -13
412 -21 695 -3 107 -7 196 -9 198 -2 3 -50 -21 -106 -53 l-102 -58 -61 33
c-34 19 -83 48 -111 65 -27 18 -60 37 -73 44 l-23 12 6 -128 c4 -70 8 -154 10
-185 3 -63 8 -59 -80 -78 -27 -7 -57 -13 -65 -15 -60 -14 -80 -16 -81 -9 0 5
-2 18 -3 29 -2 11 -6 56 -10 100 -8 97 -17 179 -20 182 -1 1 -22 -11 -46 -27
-25 -17 -48 -30 -52 -30 -4 0 -64 47 -133 105 -70 58 -128 105 -128 105 -1 0
-22 -17 -46 -38z"/>
</g>
</svg>
